<svg version="1" xmlns="http://www.w3.org/2000/svg" width="533.333" height="533.333" viewBox="0 0 400.000000 400.000000"><path d="M0 200v200h400V0H0v200zM157.1 56.6c8.6 4.4 8.2 19.1-.8 27.6-12.7 12-29.6-.5-22.8-17 4.3-10.2 15.1-15.1 23.6-10.6zm-23.8 78.5c2 .5 4.6 2 5.7 3.1 3.8 4.1 3.1 7.3-11 55.8-10.3 35.2-16.3 58.5-17.9 69.1-2.8 18.1 4.2 17.2 27.4-3.5l6.6-5.9 3.5 3.5 3.6 3.5-8.9 8.1c-14.2 13.1-23.2 19.9-32.2 24.5-7.5 3.7-9.2 4.2-15.3 4.2-6.2 0-7-.2-9.9-3.1-4.5-4.5-5.3-10-3.3-23.8 2.1-14.5 10.1-46.3 20.4-80.9 8.8-29.7 9.2-32.7 4.3-32.7-4.7 0-10.5 3.7-20.4 12.9l-9.5 8.9-4.2-3.3-4.2-3.2 9.8-9.5c18.4-17.8 33.6-26.4 50.7-28.7.6 0 2.7.4 4.8 1zm185.5 2.9c15.8 2.1 26.2 10.4 26.2 21.1 0 3.5-.6 4.8-3.9 8-3.3 3.3-4.5 3.9-8.2 3.9-5.6 0-8.4-1.9-15.4-10.3-7.1-8.5-11.9-11.1-19.2-10.5-5.9.5-9 2.3-13.7 8.2-2.6 3.1-3.1 4.7-3.4 10.4-.7 11.9 2.5 17.4 23.3 41 9.4 10.6 14.1 18.1 17.2 27.1 8.7 25.5-8.4 52.4-38.7 60.7-9.9 2.8-31.3 2.5-39.9-.5-14.5-5.1-23.1-15.3-23.1-27.8 0-11.5 9.1-18.8 18.8-15.1 5.5 2.1 8.4 7 8.1 13.8-.4 9.2 0 10.8 3.1 14.4 4.6 5.2 11.9 7 22.8 5.5 15.7-2.2 26.1-13.1 26.2-27.5 0-8-2.7-13.2-13.5-25.9-17.9-21.1-23.1-29-26-40-7.5-29.1 15.7-56.1 49.5-57.3 1.4-.1 5.8.3 9.8.8z"/></svg>